<svg width="37" height="36" viewBox="0 0 37 36" fill="none" xmlns="http://www.w3.org/2000/svg">
<rect opacity="0.1" x="0.719971" y="0.323242" width="35.3484" height="35.3484" rx="4" fill="#EF4A54"/>
<path d="M24.5817 13.498H22.3317V12.0918C22.3317 11.4713 21.8272 10.9668 21.2067 10.9668H15.5817C14.9612 10.9668 14.4567 11.4713 14.4567 12.0918V13.498H12.2067C11.8955 13.498 11.6442 13.7494 11.6442 14.0605V14.623C11.6442 14.7004 11.7074 14.7637 11.7848 14.7637H12.8465L13.2807 23.957C13.3088 24.5564 13.8045 25.0293 14.4039 25.0293H22.3844C22.9856 25.0293 23.4795 24.5582 23.5076 23.957L23.9418 14.7637H25.0035C25.0809 14.7637 25.1442 14.7004 25.1442 14.623V14.0605C25.1442 13.7494 24.8928 13.498 24.5817 13.498ZM21.066 13.498H15.7223V12.2324H21.066V13.498Z" fill="#EF4A54"/>
</svg>
