<svg width="65" height="73" viewBox="0 0 65 73" fill="none" xmlns="http://www.w3.org/2000/svg">
<path d="M61.8003 0.484375H2.90773C1.49737 0.484375 0.354004 1.63974 0.354004 3.06523V69.9035C0.354004 71.3288 1.49737 72.4844 2.90773 72.4844H61.8003C63.2106 72.4844 64.354 71.3288 64.354 69.9035V3.06508C64.3538 1.63974 63.2106 0.484375 61.8003 0.484375Z" fill="#92CCBF"/>
<path d="M11.7882 69.9037V3.06523C11.7882 1.63989 12.937 0.484375 14.354 0.484375H2.9198C1.50278 0.484375 0.354004 1.63974 0.354004 3.06523V69.9035C0.354004 71.3289 1.50278 72.4844 2.9198 72.4844H14.354C12.937 72.4844 11.7882 71.329 11.7882 69.9037Z" fill="#92CCBF"/>
<path d="M19.354 0.484375H45.354V6.48438H19.354V0.484375Z" fill="#92CCBF"/>
<path d="M59.5415 5.35536V65.9884C59.5415 66.3658 59.2342 66.6719 58.8552 66.6719H5.22783C4.84885 66.6719 4.5415 66.3658 4.5415 65.9884V5.35536C4.5415 4.97795 4.84885 4.67188 5.22783 4.67188H58.8552C59.2343 4.67188 59.5415 4.97795 59.5415 5.35536Z" fill="#F9F7F8"/>
<path d="M44.7792 49.9455V47.1844C44.7792 45.7198 44.1246 44.3152 42.9596 43.2795C41.7945 42.2439 40.2143 41.6621 38.5666 41.6621H26.1415C24.4938 41.6621 22.9137 42.2439 21.7486 43.2795C20.5835 44.3152 19.929 45.7198 19.929 47.1844V49.9455" stroke="#102E34" stroke-width="4.1417" stroke-linecap="round" stroke-linejoin="round"/>
<path d="M32.354 35.4495C35.7851 35.4495 38.5666 32.6681 38.5666 29.237C38.5666 25.8059 35.7851 23.0244 32.354 23.0244C28.9229 23.0244 26.1415 25.8059 26.1415 29.237C26.1415 32.6681 28.9229 35.4495 32.354 35.4495Z" stroke="#102E34" stroke-width="4.1417" stroke-linecap="round" stroke-linejoin="round"/>
</svg>
