<svg width="65" height="73" viewBox="0 0 65 73" fill="none" xmlns="http://www.w3.org/2000/svg">
<path d="M61.8003 0.984375H2.90773C1.49737 0.984375 0.354004 2.13974 0.354004 3.56523V70.4035C0.354004 71.8288 1.49737 72.9844 2.90773 72.9844H61.8003C63.2106 72.9844 64.354 71.8288 64.354 70.4035V3.56508C64.3538 2.13974 63.2106 0.984375 61.8003 0.984375Z" fill="#92CCBF"/>
<path d="M11.7882 70.4037V3.56523C11.7882 2.13989 12.937 0.984375 14.354 0.984375H2.9198C1.50278 0.984375 0.354004 2.13974 0.354004 3.56523V70.4035C0.354004 71.8289 1.50278 72.9844 2.9198 72.9844H14.354C12.937 72.9844 11.7882 71.829 11.7882 70.4037Z" fill="#92CCBF"/>
<path d="M19.354 0.984375H45.354V6.98438H19.354V0.984375Z" fill="#92CCBF"/>
<path d="M59.5415 5.85542V66.4884C59.5415 66.8659 59.2342 67.1719 58.8552 67.1719H5.22783C4.84885 67.1719 4.5415 66.8659 4.5415 66.4884V5.85542C4.5415 5.47801 4.84885 5.17194 5.22783 5.17194H58.8552C59.2343 5.17194 59.5415 5.47801 59.5415 5.85542Z" fill="#F9F7F8"/>
<path d="M43.1975 41.6534C42.4339 43.4592 41.2396 45.0504 39.719 46.288C38.1984 47.5256 36.3977 48.3718 34.4745 48.7527C32.5513 49.1336 30.564 49.0376 28.6865 48.4731C26.8089 47.9085 25.0982 46.8927 23.704 45.5143C22.3098 44.1359 21.2744 42.4369 20.6885 40.5659C20.1025 38.6949 19.9838 36.7089 20.3427 34.7814C20.7017 32.854 21.5273 31.0438 22.7474 29.5091C23.9675 27.9745 25.545 26.7621 27.342 25.9779" stroke="#002026" stroke-width="2.61877" stroke-linecap="round" stroke-linejoin="round"/>
<path d="M44.1459 36.9844C44.1459 35.4082 43.8354 33.8474 43.2322 32.3911C42.629 30.9349 41.7449 29.6117 40.6304 28.4972C39.5158 27.3826 38.1927 26.4985 36.7364 25.8953C35.2802 25.2921 33.7194 24.9817 32.1432 24.9817V36.9844H44.1459Z" fill="#002026"/>
</svg>
