<svg width="44" height="44" viewBox="0 0 44 44" fill="none" xmlns="http://www.w3.org/2000/svg">
<circle cx="22" cy="22" r="22" fill="#92CCBF" fill-opacity="0.2"/>
<rect x="16.9083" y="17.9805" width="11.05" height="12.6616" fill="#002026"/>
<path d="M33.2752 12H31.1676H13.7804H11.6539H11.0651V18.5896H13.7804V14.6286H31.1676V18.5896H33.864V12H33.2752Z" fill="#002026"/>
<path d="M23.0269 23.8551C22.1727 23.5457 21.8211 23.3426 21.8211 23.0238C21.8211 22.753 22.0324 22.4822 22.6856 22.4822C23.4093 22.4822 23.8729 22.7046 24.1335 22.8113L24.4249 21.7186C24.0929 21.5639 23.64 21.4285 22.9673 21.3993V20.5488H21.982V21.4671C20.9062 21.6702 20.2828 22.3368 20.2828 23.1879C20.2828 24.1254 21.0167 24.6087 22.0925 24.9566C22.8367 25.1983 23.1585 25.4301 23.1585 25.7983C23.1585 26.1842 22.7663 26.3962 22.1927 26.3962C21.5394 26.3962 20.9463 26.1931 20.5238 25.9717L20.2227 27.103C20.6045 27.315 21.2578 27.4895 21.9316 27.5186V28.4363H22.9169V27.4504C24.0723 27.2577 24.706 26.5228 24.706 25.6624C24.7066 24.7926 24.2234 24.2613 23.0269 23.8551Z" fill="#F0F5F4"/>
<path d="M28.8429 29.7439V26.8814V22.309V21.2683V17.1016H16.0856V20.6116V22.309V26.8814V28.0314V30.2788H12.1726L22.4642 36.9996L32.7559 30.2793H28.8429V29.7439ZM17.495 29.3678V28.4361V28.0319V26.8819V22.3095V20.6121V20.5578C17.6282 20.5875 17.7653 20.6068 17.9077 20.6068C18.9142 20.6068 19.7305 19.8224 19.7305 18.8542C19.7305 18.7286 19.7153 18.6068 19.6893 18.4891H25.2387C25.2132 18.6073 25.198 18.7286 25.198 18.8542C25.198 19.8219 26.0143 20.6068 27.0202 20.6068C27.1096 20.6068 27.1957 20.5938 27.2807 20.5818V21.2694V22.31V26.8824V27.8699V29.3449V30.2803H17.495V29.3678Z" fill="#002026"/>
</svg>
