<svg width="46" height="55" viewBox="0 0 46 55" fill="none" xmlns="http://www.w3.org/2000/svg">
<path d="M43.3626 3.77789H2.10167C1.11356 3.77789 0.3125 4.58736 0.3125 5.58608V52.4138C0.3125 53.4125 1.11356 54.222 2.10167 54.222H43.3626C44.3507 54.222 45.1517 53.4125 45.1517 52.4138V5.58597C45.1516 4.58736 44.3507 3.77789 43.3626 3.77789Z" fill="#002026"/>
<path d="M8.32345 52.414V5.58608C8.32345 4.58746 9.1283 3.77789 10.1211 3.77789H2.11013C1.11735 3.77789 0.3125 4.58736 0.3125 5.58608V52.4139C0.3125 53.4125 1.11735 54.222 2.11013 54.222H10.1211C9.1283 54.222 8.32345 53.4126 8.32345 52.414Z" fill="#002026"/>
<path d="M13.624 3.77789H31.84V7.98157H13.624V3.77789Z" fill="#002026"/>
<path d="M42.3494 7.75968V50.24C42.3494 50.5044 42.1341 50.7188 41.8685 50.7188H4.29652C4.03101 50.7188 3.81567 50.5044 3.81567 50.24V7.75968C3.81567 7.49526 4.03101 7.28082 4.29652 7.28082H41.8685C42.1342 7.28082 42.3494 7.49526 42.3494 7.75968Z" fill="#F9F7F8"/>
<path d="M4.30775 7.28082C4.03603 7.28082 3.81567 7.49526 3.81567 7.75968V50.24C3.81567 50.5044 4.03603 50.7188 4.30775 50.7188H8.71996V7.28082H4.30775Z" fill="#EFEDEF"/>
<path d="M13.624 7.28082V10.6248C13.624 12.2578 14.9787 13.5863 16.6439 13.5863H28.8201C30.4853 13.5863 31.84 12.2578 31.84 10.6248V7.28082H13.624Z" fill="#EFEDEF"/>
<path d="M28.8461 2.80646H25.4404C25.0052 1.73261 23.957 0.975342 22.7323 0.975342C21.5075 0.975342 20.4594 1.73261 20.0241 2.80646H16.6184C16.1257 2.80646 15.7261 3.208 15.7261 3.70346V10.5875C15.7261 11.0829 16.1255 11.4845 16.6184 11.4845H28.846C29.3388 11.4845 29.7383 11.0829 29.7383 10.5875V3.70346C29.7384 3.208 29.3389 2.80646 28.8461 2.80646Z" fill="#F9F7F8"/>
<path d="M19.8548 7.98143H19.3037C18.8755 7.98143 18.5283 7.66783 18.5283 7.28081C18.5283 6.89379 18.8755 6.5802 19.3037 6.5802H19.8548C20.283 6.5802 20.6302 6.89379 20.6302 7.28081C20.6302 7.66783 20.283 7.98143 19.8548 7.98143Z" fill="#EFEDEF"/>
<path d="M26.1604 7.98143H25.6094C25.1812 7.98143 24.834 7.66783 24.834 7.28081C24.834 6.89379 25.1812 6.5802 25.6094 6.5802H26.1604C26.5887 6.5802 26.9358 6.89379 26.9358 7.28081C26.9358 7.66783 26.5887 7.98143 26.1604 7.98143Z" fill="#EFEDEF"/>
<path d="M12.7689 27.5987H11.6771C11.2047 27.5987 10.8218 27.2851 10.8218 26.8981C10.8218 26.5111 11.2047 26.1975 11.6771 26.1975H12.7689C13.2413 26.1975 13.6242 26.5111 13.6242 26.8981C13.6242 27.2851 13.2413 27.5987 12.7689 27.5987Z" fill="#A282DD"/>
<path d="M36.6512 27.5987H16.52C16.0815 27.5987 15.7261 27.2851 15.7261 26.8981C15.7261 26.5111 16.0815 26.1975 16.52 26.1975H36.6511C37.0896 26.1975 37.4451 26.5111 37.4451 26.8981C37.4451 27.2851 37.0897 27.5987 36.6512 27.5987Z" fill="#A282DD"/>
<path d="M36.6495 31.8023H8.81482C8.37548 31.8023 8.01929 31.4887 8.01929 31.1017C8.01929 30.7147 8.37548 30.4011 8.81482 30.4011H36.6495C37.0888 30.4011 37.445 30.7147 37.445 31.1017C37.445 31.4887 37.0888 31.8023 36.6495 31.8023Z" fill="#A282DD"/>
<path d="M36.6495 22.6943H8.81482C8.37548 22.6943 8.01929 22.3807 8.01929 21.9936C8.01929 21.6066 8.37548 21.293 8.81482 21.293H36.6495C37.0888 21.293 37.445 21.6066 37.445 21.9936C37.445 22.3807 37.0888 22.6943 36.6495 22.6943Z" fill="#A282DD"/>
<path d="M36.6495 17.7901H8.81482C8.37548 17.7901 8.01929 17.4765 8.01929 17.0895C8.01929 16.7024 8.37548 16.3889 8.81482 16.3889H36.6495C37.0888 16.3889 37.445 16.7024 37.445 17.0895C37.445 17.4765 37.0888 17.7901 36.6495 17.7901Z" fill="#A282DD"/>
<g clip-path="url(#clip0_3580_122356)">
<path fill-rule="evenodd" clip-rule="evenodd" d="M29.6316 32.0993L33.1885 35.6524L31.5741 37.2687L28.0172 33.7137C24.6403 36.2993 19.7916 36.0537 16.7016 32.9656C13.3397 29.6037 13.3397 24.1493 16.7016 20.7856C20.0672 17.4237 25.5197 17.4237 28.8835 20.7856C31.9735 23.8756 32.2153 28.7224 29.6316 32.0993ZM17.984 22.0642C15.329 24.7192 15.329 29.028 17.984 31.6848C20.639 34.3398 24.9422 34.3398 27.6028 31.6848C30.2578 29.0242 30.2578 24.7192 27.6028 22.0642C24.944 19.4092 20.6409 19.4073 17.984 22.0642Z" fill="#1BC1BF"/>
<path opacity="0.7" d="M17.9839 31.6848C15.3289 29.028 15.3289 24.7192 17.9839 22.0642C20.6408 19.4073 24.9439 19.4092 27.6027 22.0642C30.2577 24.7192 30.2577 29.0242 27.6027 31.6848C24.9421 34.3398 20.6389 34.3398 17.9839 31.6848Z" fill="white"/>
<path d="M37.8759 38.9524L33.0891 34.1543C31.8703 32.9356 28.9303 35.9862 30.0947 37.1487L34.8816 41.9468C35.3766 42.4399 36.4491 42.1699 37.2722 41.3412C38.0991 40.5162 38.3691 39.4456 37.8759 38.9524Z" fill="#E9C300"/>
<path d="M35.0073 41.81C35.041 41.4275 35.2904 40.9756 35.4517 40.7206C35.9335 39.9575 36.5392 39.3256 37.4429 39.0856C38.3617 38.84 38.4535 39.5319 38.2342 40.2331C37.9698 41.0787 37.4429 41.7144 36.6667 42.1587C36.4848 42.2637 36.2429 42.4119 36.0329 42.4437C35.5192 42.5169 34.9529 42.4512 35.0073 41.81Z" fill="#EF4A54"/>
</g>
<defs>
<clipPath id="clip0_3580_122356">
<rect width="24" height="24" fill="white" transform="translate(14.1516 18.228)"/>
</clipPath>
</defs>
</svg>
