<svg width="46" height="54" viewBox="0 0 46 54" fill="none" xmlns="http://www.w3.org/2000/svg">
<path d="M43.3626 3.35352H2.10167C1.11356 3.35352 0.3125 4.16298 0.3125 5.1617V51.9895C0.3125 52.9881 1.11356 53.7977 2.10167 53.7977H43.3626C44.3507 53.7977 45.1517 52.9881 45.1517 51.9895V5.16159C45.1516 4.16298 44.3507 3.35352 43.3626 3.35352Z" fill="#002026"/>
<path d="M8.32345 51.9896V5.1617C8.32345 4.16309 9.1283 3.35352 10.1211 3.35352H2.11013C1.11735 3.35352 0.3125 4.16298 0.3125 5.1617V51.9895C0.3125 52.9881 1.11735 53.7977 2.11013 53.7977H10.1211C9.1283 53.7977 8.32345 52.9882 8.32345 51.9896Z" fill="#002026"/>
<path d="M13.624 3.35352H31.84V7.55719H13.624V3.35352Z" fill="#002026"/>
<path d="M42.3493 7.33531V49.8156C42.3493 50.08 42.1339 50.2945 41.8684 50.2945H4.2964C4.03088 50.2945 3.81555 50.08 3.81555 49.8156V7.33531C3.81555 7.07089 4.03088 6.85645 4.2964 6.85645H41.8684C42.134 6.85645 42.3493 7.07089 42.3493 7.33531Z" fill="#F9F7F8"/>
<path d="M4.30763 6.85645C4.03591 6.85645 3.81555 7.07089 3.81555 7.33531V49.8156C3.81555 50.08 4.03591 50.2945 4.30763 50.2945H8.71984V6.85645H4.30763Z" fill="#EFEDEF"/>
<path d="M13.624 6.85645V10.2004C13.624 11.8334 14.9787 13.162 16.6439 13.162H28.8201C30.4853 13.162 31.84 11.8334 31.84 10.2004V6.85645H13.624Z" fill="#EFEDEF"/>
<path d="M28.846 2.3819H25.4402C25.005 1.30805 23.9569 0.550781 22.7321 0.550781C21.5074 0.550781 20.4592 1.30805 20.024 2.3819H16.6183C16.1255 2.3819 15.726 2.78344 15.726 3.2789V10.163C15.726 10.6583 16.1254 11.06 16.6183 11.06H28.8459C29.3386 11.06 29.7382 10.6583 29.7382 10.163V3.2789C29.7383 2.78344 29.3387 2.3819 28.846 2.3819Z" fill="#F9F7F8"/>
<path d="M19.8549 7.55699H19.3038C18.8756 7.55699 18.5284 7.24339 18.5284 6.85637C18.5284 6.46936 18.8756 6.15576 19.3038 6.15576H19.8549C20.2831 6.15576 20.6303 6.46936 20.6303 6.85637C20.6303 7.24339 20.2831 7.55699 19.8549 7.55699Z" fill="#EFEDEF"/>
<path d="M26.1603 7.55699H25.6093C25.181 7.55699 24.8339 7.24339 24.8339 6.85637C24.8339 6.46936 25.181 6.15576 25.6093 6.15576H26.1603C26.5885 6.15576 26.9357 6.46936 26.9357 6.85637C26.9357 7.24339 26.5885 7.55699 26.1603 7.55699Z" fill="#EFEDEF"/>
<path d="M12.7688 27.1742H11.677C11.2046 27.1742 10.8217 26.8606 10.8217 26.4736C10.8217 26.0865 11.2046 25.7729 11.677 25.7729H12.7688C13.2411 25.7729 13.6241 26.0865 13.6241 26.4736C13.6241 26.8606 13.2411 27.1742 12.7688 27.1742Z" fill="#A282DD"/>
<path d="M36.6511 27.1742H16.5199C16.0814 27.1742 15.726 26.8606 15.726 26.4736C15.726 26.0865 16.0814 25.7729 16.5199 25.7729H36.651C37.0895 25.7729 37.445 26.0865 37.445 26.4736C37.445 26.8606 37.0896 27.1742 36.6511 27.1742Z" fill="#A282DD"/>
<path d="M36.6495 31.3778H8.81482C8.37548 31.3778 8.01929 31.0642 8.01929 30.6772C8.01929 30.2902 8.37548 29.9766 8.81482 29.9766H36.6495C37.0888 29.9766 37.445 30.2902 37.445 30.6772C37.445 31.0642 37.0888 31.3778 36.6495 31.3778Z" fill="#A282DD"/>
<path d="M36.6495 22.2699H8.81482C8.37548 22.2699 8.01929 21.9563 8.01929 21.5693C8.01929 21.1822 8.37548 20.8687 8.81482 20.8687H36.6495C37.0888 20.8687 37.445 21.1822 37.445 21.5693C37.445 21.9563 37.0888 22.2699 36.6495 22.2699Z" fill="#A282DD"/>
<path d="M36.6495 17.3656H8.81482C8.37548 17.3656 8.01929 17.052 8.01929 16.665C8.01929 16.2779 8.37548 15.9644 8.81482 15.9644H36.6495C37.0888 15.9644 37.445 16.2779 37.445 16.665C37.445 17.052 37.0888 17.3656 36.6495 17.3656Z" fill="#A282DD"/>
<g clip-path="url(#clip0_3573_330978)">
<path fill-rule="evenodd" clip-rule="evenodd" d="M29.6316 31.675L33.1885 35.2281L31.5741 36.8444L28.0172 33.2894C24.6403 35.875 19.7916 35.6294 16.7016 32.5413C13.3397 29.1794 13.3397 23.725 16.7016 20.3613C20.0672 16.9994 25.5197 16.9994 28.8835 20.3613C31.9735 23.4513 32.2153 28.2981 29.6316 31.675ZM17.984 21.6399C15.329 24.2949 15.329 28.6037 17.984 31.2605C20.639 33.9155 24.9422 33.9155 27.6028 31.2605C30.2578 28.5999 30.2578 24.2949 27.6028 21.6399C24.944 18.9849 20.6409 18.983 17.984 21.6399Z" fill="#1BC1BF"/>
<path opacity="0.7" d="M17.984 31.2605C15.329 28.6037 15.329 24.2949 17.984 21.6399C20.6409 18.983 24.944 18.9849 27.6028 21.6399C30.2578 24.2949 30.2578 28.5999 27.6028 31.2605C24.9422 33.9155 20.639 33.9155 17.984 31.2605Z" fill="white"/>
<path d="M37.8759 38.5282L33.0891 33.7301C31.8703 32.5114 28.9303 35.562 30.0947 36.7245L34.8816 41.5226C35.3766 42.0157 36.4491 41.7457 37.2722 40.917C38.0991 40.092 38.3691 39.0214 37.8759 38.5282Z" fill="#E9C300"/>
<path d="M35.0072 41.3858C35.0409 41.0033 35.2903 40.5514 35.4515 40.2964C35.9334 39.5333 36.539 38.9014 37.4428 38.6614C38.3615 38.4158 38.4534 39.1077 38.234 39.8089C37.9697 40.6546 37.4428 41.2902 36.6665 41.7346C36.4847 41.8396 36.2428 41.9877 36.0328 42.0195C35.519 42.0927 34.9528 42.0271 35.0072 41.3858Z" fill="#EF4A54"/>
</g>
<defs>
<clipPath id="clip0_3573_330978">
<rect width="24" height="24" fill="white" transform="translate(14.1516 17.8037)"/>
</clipPath>
</defs>
</svg>
