<svg width="31" height="30" viewBox="0 0 31 30" fill="none" xmlns="http://www.w3.org/2000/svg">
<rect x="1" y="0.684082" width="28.8138" height="28.8138" rx="14.4069" fill="#E9E9E9" stroke="white"/>
<path d="M12.7882 11.4492L10.2747 22.7869L12.9676 21.2869L14.7744 23.7843L17.2876 12.4469L12.7882 11.4492Z" fill="#1BC1BF"/>
<path d="M13.9507 12.4469L16.464 23.7843L18.2707 21.2869L20.9637 22.7869L18.4501 11.4492L13.9507 12.4469Z" fill="#92CCBF"/>
<path d="M20.9497 14.696C21.1983 14.098 21.7836 13.5892 21.8321 12.9769C21.8821 12.3425 21.3758 11.747 21.2297 11.1412C21.0824 10.5295 21.2608 9.76923 20.9319 9.23245C20.6068 8.70095 19.8512 8.51291 19.3673 8.09952C18.9011 7.70074 18.6014 6.98058 18.0034 6.73193C17.4054 6.48327 16.684 6.7829 16.072 6.73441C15.4373 6.68437 14.7703 6.28342 14.1645 6.42919C13.5525 6.57683 13.141 7.24011 12.6042 7.56834C12.0724 7.89345 11.2935 7.95655 10.8801 8.44049C10.4816 8.90672 10.5363 9.68376 10.2896 10.2799C10.0428 10.8761 9.45564 11.3867 9.40715 11.999C9.35711 12.6334 9.86343 13.2289 10.0095 13.8347C10.1568 14.4464 9.97843 15.2067 10.3073 15.7435C10.6324 16.2753 11.388 16.4633 11.8719 16.8764C12.3382 17.2752 12.6378 17.9953 13.2358 18.244C13.8338 18.4926 14.5552 18.1927 15.1672 18.2412C15.8019 18.2912 16.4689 18.6925 17.0747 18.5464C17.6867 18.3991 18.0982 17.7358 18.635 17.4073C19.1668 17.0821 19.9457 17.019 20.3591 16.5351C20.7566 16.0683 20.7019 15.294 20.9497 14.696Z" fill="#102E34"/>
<path d="M15.6192 17.096C18.1638 17.096 20.2267 15.0331 20.2267 12.4884C20.2267 9.94373 18.1638 7.88086 15.6192 7.88086C13.0745 7.88086 11.0116 9.94373 11.0116 12.4884C11.0116 15.0331 13.0745 17.096 15.6192 17.096Z" fill="#92CCBF"/>
<path d="M18.5515 15.4206C20.1709 13.8011 20.1709 11.1754 18.5515 9.55596C16.932 7.93649 14.3063 7.93649 12.6868 9.55596C11.0674 11.1754 11.0674 13.8011 12.6868 15.4206C14.3063 17.0401 16.932 17.0401 18.5515 15.4206Z" fill="#102E34"/>
<path d="M15.6181 14.4844C15.2377 14.4844 14.9324 14.38 14.7023 14.1714C14.4722 13.9597 14.3571 13.6406 14.3571 13.2142V12.4042C14.3571 11.99 14.4722 11.6755 14.7023 11.4607C14.9324 11.2429 15.2377 11.134 15.6181 11.134C16.0016 11.134 16.3069 11.2429 16.5339 11.4607C16.7641 11.6755 16.8791 11.99 16.8791 12.4042V13.2142C16.8791 13.6406 16.7641 13.9597 16.5339 14.1714C16.3069 14.38 16.0016 14.4844 15.6181 14.4844ZM15.6181 13.9597C15.8482 13.9597 16.017 13.8968 16.1244 13.771C16.2348 13.6452 16.29 13.4657 16.29 13.2326V12.3766C16.29 12.1403 16.2287 11.9624 16.1059 11.8427C15.9863 11.72 15.8237 11.6586 15.6181 11.6586C15.4064 11.6586 15.2407 11.7215 15.1211 11.8473C15.0045 11.9731 14.9462 12.1495 14.9462 12.3766V13.2326C14.9462 13.4749 15.0014 13.6575 15.1119 13.7802C15.2254 13.8999 15.3942 13.9597 15.6181 13.9597Z" fill="#92CCBF"/>
</svg>
