<svg width="44" height="44" viewBox="0 0 44 44" fill="none" xmlns="http://www.w3.org/2000/svg">
<circle cx="22.3125" cy="22.25" r="20.9071" fill="#92CCBF" fill-opacity="0.2" stroke="#1BC1BF" stroke-width="1.06071"/>
<path d="M17.6799 18.8447L14.1206 34.8991L17.9338 32.775L20.4923 36.3114L24.0511 20.2575L17.6799 18.8447Z" fill="#1BC1BF"/>
<path d="M19.3257 20.2575L22.8845 36.3114L25.4429 32.775L29.2562 34.8991L25.6969 18.8447L19.3257 20.2575Z" fill="#92CCBF"/>
<path d="M29.2365 23.4423C29.5886 22.5955 30.4173 21.875 30.486 21.0079C30.5569 20.1097 29.8399 19.2664 29.633 18.4086C29.4244 17.5424 29.677 16.4659 29.2114 15.7058C28.751 14.9532 27.6811 14.6869 26.9958 14.1016C26.3356 13.5369 25.9114 12.5171 25.0646 12.165C24.2178 11.8129 23.1962 12.2372 22.3296 12.1685C21.4309 12.0977 20.4864 11.5299 19.6286 11.7363C18.762 11.9454 18.1793 12.8846 17.4192 13.3494C16.6662 13.8098 15.5632 13.8991 14.9779 14.5844C14.4136 15.2445 14.4911 16.3449 14.1416 17.189C13.7922 18.0332 12.9608 18.7563 12.8921 19.6233C12.8213 20.5216 13.5382 21.3649 13.7451 22.2227C13.9537 23.0888 13.7011 24.1654 14.1667 24.9255C14.6271 25.6785 15.697 25.9448 16.3823 26.5297C17.0425 27.0944 17.4667 28.1142 18.3135 28.4662C19.1603 28.8183 20.1819 28.3936 21.0485 28.4623C21.9472 28.5331 22.8917 29.1013 23.7495 28.8945C24.6161 28.6859 25.1988 27.7467 25.9589 27.2814C26.7119 26.8211 27.8149 26.7317 28.4003 26.0465C28.9632 25.3854 28.8857 24.2891 29.2365 23.4423Z" fill="#102E34"/>
<path d="M21.6884 26.8407C25.2917 26.8407 28.2128 23.9197 28.2128 20.3164C28.2128 16.7131 25.2917 13.792 21.6884 13.792C18.0851 13.792 15.1641 16.7131 15.1641 20.3164C15.1641 23.9197 18.0851 26.8407 21.6884 26.8407Z" fill="#92CCBF"/>
<path d="M25.8407 24.4686C28.1339 22.1754 28.1339 18.4574 25.8407 16.1642C23.5475 13.871 19.8294 13.871 17.5362 16.1642C15.243 18.4574 15.243 22.1754 17.5362 24.4686C19.8294 26.7618 23.5475 26.7618 25.8407 24.4686Z" fill="#102E34"/>
<path d="M20.0274 21.9707V21.4233C20.0274 21.1062 20.0795 20.8433 20.1838 20.6348C20.2881 20.4219 20.438 20.2481 20.6335 20.1134C20.8333 19.9744 21.0766 19.8615 21.3633 19.7746L21.7999 19.6377C21.9607 19.5856 22.0954 19.5226 22.204 19.4487C22.3126 19.3705 22.3951 19.2771 22.4516 19.1685C22.5124 19.0599 22.5428 18.9361 22.5428 18.7971V18.771C22.5428 18.5538 22.469 18.3822 22.3213 18.2562C22.1736 18.1259 21.9716 18.0607 21.7152 18.0607C21.4632 18.0607 21.2591 18.1302 21.1027 18.2692C20.9506 18.4039 20.8746 18.5994 20.8746 18.8557V18.973H20.0404V18.8688C20.0404 18.5386 20.1143 18.2584 20.262 18.0281C20.4097 17.7978 20.6096 17.6219 20.8615 17.5002C21.1179 17.3786 21.4024 17.3178 21.7152 17.3178C22.028 17.3178 22.3104 17.3786 22.5624 17.5002C22.8144 17.6175 23.0121 17.7848 23.1554 18.002C23.3031 18.2149 23.377 18.4669 23.377 18.758V18.8231C23.377 19.1142 23.3162 19.3619 23.1945 19.566C23.0772 19.7659 22.9165 19.931 22.7123 20.0613C22.5081 20.1873 22.2757 20.2916 22.015 20.3741L21.5979 20.5044C21.4111 20.5609 21.2656 20.6239 21.1613 20.6934C21.057 20.7586 20.9832 20.8325 20.9397 20.915C20.9006 20.9932 20.8811 21.0888 20.8811 21.2017V21.2278H23.3379V21.9707H20.0274Z" fill="#92CCBF"/>
</svg>
