<svg width="32" height="32" viewBox="0 0 32 32" fill="none" xmlns="http://www.w3.org/2000/svg">
<path d="M16 16.8346C16.4602 16.8346 16.8333 16.4615 16.8333 16.0013C16.8333 15.5411 16.4602 15.168 16 15.168C15.5397 15.168 15.1666 15.5411 15.1666 16.0013C15.1666 16.4615 15.5397 16.8346 16 16.8346Z" stroke="white" stroke-width="2" stroke-linecap="round" stroke-linejoin="round"/>
<path d="M16 10.9987C16.4602 10.9987 16.8333 10.6256 16.8333 10.1654C16.8333 9.70513 16.4602 9.33203 16 9.33203C15.5397 9.33203 15.1666 9.70513 15.1666 10.1654C15.1666 10.6256 15.5397 10.9987 16 10.9987Z" stroke="white" stroke-width="2" stroke-linecap="round" stroke-linejoin="round"/>
<path d="M16 22.6667C16.4602 22.6667 16.8333 22.2936 16.8333 21.8333C16.8333 21.3731 16.4602 21 16 21C15.5397 21 15.1666 21.3731 15.1666 21.8333C15.1666 22.2936 15.5397 22.6667 16 22.6667Z" stroke="white" stroke-width="2" stroke-linecap="round" stroke-linejoin="round"/>
</svg>
