<svg width="91" height="97" viewBox="0 0 91 97" fill="none" xmlns="http://www.w3.org/2000/svg">
<path d="M81.1763 35.5445L35.9547 80.7669C33.9107 82.8102 30.5974 82.8102 28.5542 80.7669L1.94262 54.1554C-0.100665 52.1113 -0.100665 48.7981 1.94262 46.7548L47.1643 1.53246C49.2083 -0.510821 52.5215 -0.510821 54.5648 1.53246L81.1763 28.144C83.2204 30.1873 83.2204 33.5012 81.1763 35.5445Z" fill="#92CCBF"/>
<path d="M81.1759 28.1456L77.8553 24.8242C79.6751 26.644 79.4931 29.7759 77.4498 31.8192L32.2274 77.0416C30.1841 79.0856 27.0522 79.2669 25.2324 77.4471L28.5538 80.7685C30.5971 82.8118 33.9103 82.8118 35.9543 80.7685L81.1759 35.5461C83.22 33.5028 83.22 30.1889 81.1759 28.1456Z" fill="#1BC1BF"/>
<path d="M10.6381 52.2935C10.274 52.2935 9.9106 52.1543 9.63308 51.8768C9.07804 51.3218 9.07804 50.4226 9.63308 49.8676L31.7836 27.7171C32.3386 27.162 33.2385 27.162 33.7928 27.7171C34.3479 28.2721 34.3479 29.172 33.7928 29.7263L11.6423 51.8776C11.3648 52.1543 11.0014 52.2935 10.6381 52.2935Z" fill="#002026"/>
<path d="M17.6791 59.3325C17.315 59.3325 16.9516 59.1934 16.6741 58.9159C16.1191 58.3608 16.1191 57.4617 16.6741 56.9066L38.8246 34.7561C39.3796 34.2011 40.2795 34.2011 40.8338 34.7561C41.3889 35.3112 41.3889 36.2111 40.8338 36.7654L18.6833 58.9159C18.4058 59.1934 18.0424 59.3325 17.6791 59.3325Z" fill="#002026"/>
<path d="M46.4255 11.8398L41.9941 16.2705C40.252 18.0125 40.252 20.8366 41.9941 22.5787C43.7361 24.3208 46.5609 24.3208 48.303 22.5787L52.7337 18.148C54.4758 16.4059 54.4758 13.5818 52.7337 11.8398C50.9916 10.0977 48.1668 10.0977 46.4255 11.8398Z" fill="#1BC1BF"/>
<path d="M85.4465 48.8984H21.4927C18.6028 48.8984 16.2598 51.2414 16.2598 54.1313V91.766C16.2598 94.6559 18.6028 96.9989 21.4927 96.9989H85.4465C88.3372 96.9989 90.6794 94.6559 90.6794 91.766V54.1313C90.6802 51.2414 88.3372 48.8984 85.4465 48.8984Z" fill="#1BC1BF"/>
<path d="M85.4455 48.8984H80.7617C83.6516 48.8984 85.9946 51.2414 85.9946 54.1313V91.766C85.9946 94.6559 83.6516 96.9989 80.7617 96.9989H85.4455C88.3362 96.9989 90.6784 94.6559 90.6784 91.766V54.1313C90.6792 51.2414 88.3362 48.8984 85.4455 48.8984Z" fill="#1A8F8E"/>
<path d="M16.2598 60.7227H90.6802V69.7639H16.2598V60.7227Z" fill="#102E34"/>
<path d="M85.9961 60.7227H90.6799V69.7639H85.9961V60.7227Z" fill="#002026"/>
<path d="M72.3906 84.2104V89.7867C72.3906 90.2182 72.7399 90.5675 73.1714 90.5675H82.0409C82.4724 90.5675 82.8217 90.2182 82.8217 89.7867V84.2104C82.8217 83.779 82.4724 83.4297 82.0409 83.4297H73.1714C72.7399 83.4297 72.3906 83.779 72.3906 84.2104Z" fill="#E9E9EA"/>
<path d="M45.6465 84.2104V89.7867C45.6465 90.2182 45.9965 90.5675 46.4272 90.5675H65.1876C65.619 90.5675 65.9683 90.2182 65.9683 89.7867V84.2104C65.9683 83.779 65.619 83.4297 65.1876 83.4297H46.4272C45.9965 83.4297 45.6465 83.779 45.6465 84.2104Z" fill="#E9E9EA"/>
<path d="M37.9994 91.9863H28.6533C27.8681 91.9863 27.2324 91.3499 27.2324 90.5654C27.2324 89.7802 27.8681 89.1445 28.6533 89.1445H37.9994C38.7846 89.1445 39.4203 89.7802 39.4203 90.5654C39.4203 91.3499 38.7846 91.9863 37.9994 91.9863Z" fill="#002026"/>
<circle cx="16" cy="49.1895" r="13" fill="#EF4A54"/>
<path d="M20 45.1895L12 53.1895" stroke="white" stroke-width="2" stroke-linecap="round" stroke-linejoin="round"/>
<path d="M12 45.1895L20 53.1895" stroke="white" stroke-width="2" stroke-linecap="round" stroke-linejoin="round"/>
</svg>
