<svg width="36" height="23" viewBox="0 0 36 23" fill="none" xmlns="http://www.w3.org/2000/svg">
<path d="M23.2095 3.13672H13.7305V20.1688H23.2095V3.13672Z" fill="#FF5F00"/>
<path d="M14.3323 11.6515C14.3323 8.1909 15.9573 5.12152 18.455 3.13544C16.6193 1.69103 14.3023 0.818359 11.7745 0.818359C5.78622 0.818359 0.941406 5.66317 0.941406 11.6515C0.941406 17.6398 5.78622 22.4846 11.7745 22.4846C14.3023 22.4846 16.6193 21.6119 18.455 20.1675C15.9573 18.2115 14.3323 15.1121 14.3323 11.6515Z" fill="#EB001B"/>
<path d="M35.9979 11.6515C35.9979 17.6398 31.1531 22.4846 25.1648 22.4846C22.6371 22.4846 20.32 21.6119 18.4844 20.1675C21.0121 18.1814 22.607 15.1121 22.607 11.6515C22.607 8.1909 20.982 5.12152 18.4844 3.13544C20.32 1.69103 22.6371 0.818359 25.1648 0.818359C31.1531 0.818359 35.9979 5.69326 35.9979 11.6515Z" fill="#F79E1B"/>
</svg>
