<svg width="65" height="76" viewBox="0 0 65 76" fill="none" xmlns="http://www.w3.org/2000/svg">
<path d="M61.7583 4.1748H2.56669C1.14918 4.1748 0 5.32383 0 6.74149V73.2129C0 74.6304 1.14918 75.7796 2.56669 75.7796H61.7583C63.1758 75.7796 64.325 74.6304 64.325 73.2129V6.74134C64.3248 5.32383 63.1758 4.1748 61.7583 4.1748Z" fill="#002026"/>
<path d="M11.4382 73.2121V6.74052C11.4382 5.323 12.5874 4.17383 14.0049 4.17383H2.56669C1.14918 4.17383 0 5.32285 0 6.74052V73.2119C0 74.6294 1.14918 75.7786 2.56669 75.7786H14.0049C12.5874 75.7786 11.4382 74.6296 11.4382 73.2121Z" fill="#002026"/>
<path d="M19.1237 4.1748H45.2014V9.89551H19.1237V4.1748Z" fill="#002026"/>
<path d="M59.7482 9.43847V70.5133C59.7482 70.8935 59.4399 71.2018 59.0598 71.2018H5.26501C4.88485 71.2018 4.57654 70.8935 4.57654 70.5133V9.43847C4.57654 9.05831 4.88485 8.75 5.26501 8.75H59.0598C59.4401 8.75 59.7482 9.05831 59.7482 9.43847Z" fill="#F9F7F8"/>
<path d="M5.26501 8.75C4.88485 8.75 4.57654 9.05831 4.57654 9.43847V70.5133C4.57654 70.8935 4.88485 71.2018 5.26501 71.2018H11.4382V8.75H5.26501Z" fill="#EFEDEF"/>
<path d="M19.1237 8.75V13.6315C19.1237 16.0153 21.0631 17.9547 23.4468 17.9547H40.8784C43.2621 17.9547 45.2015 16.0153 45.2015 13.6315V8.75H19.1237Z" fill="#EFEDEF"/>
<path d="M40.8782 2.5969H36.0231C35.4027 1.07397 33.9084 0 32.1625 0C30.4165 0 28.9222 1.07397 28.3018 2.5969H23.4467C22.7442 2.5969 22.1746 3.16637 22.1746 3.86903V13.6321C22.1746 14.3346 22.744 14.9042 23.4467 14.9042H40.8781C41.5806 14.9042 42.1502 14.3346 42.1502 13.6321V3.86903C42.1503 3.16637 41.5807 2.5969 40.8782 2.5969Z" fill="#F9F7F8"/>
<path d="M27.7817 9.89473H26.9686C26.3367 9.89473 25.8245 9.38261 25.8245 8.75059C25.8245 8.11856 26.3367 7.60645 26.9686 7.60645H27.7817C28.4136 7.60645 28.9258 8.11856 28.9258 8.75059C28.9258 9.38261 28.4136 9.89473 27.7817 9.89473Z" fill="#EFEDEF"/>
<path d="M37.5089 9.89473H36.6958C36.0639 9.89473 35.5516 9.38261 35.5516 8.75059C35.5516 8.11856 36.0639 7.60645 36.6958 7.60645H37.5089C38.1407 7.60645 38.653 8.11856 38.653 8.75059C38.653 9.38261 38.1407 9.89473 37.5089 9.89473Z" fill="#EFEDEF"/>
<path d="M20.3213 28.5935H18.6768V20.9508C18.6768 20.3188 18.1646 19.8066 17.5327 19.8066C16.9008 19.8066 16.3885 20.3188 16.3885 20.9508V29.3303C16.3885 30.1857 17.0845 30.8818 17.94 30.8818H20.3213C20.9532 30.8818 21.4655 30.3697 21.4655 29.7376C21.4655 29.1056 20.9532 28.5935 20.3213 28.5935Z" fill="#1BC1BF"/>
<path d="M26.5188 19.8066C24.6378 19.8066 23.1075 21.3369 23.1075 23.2179V27.4704C23.1075 29.3514 24.6378 30.8816 26.5188 30.8816C28.3997 30.8816 29.93 29.3514 29.93 27.4704V23.2179C29.9298 21.3369 28.3996 19.8066 26.5188 19.8066ZM27.6415 27.4704C27.6415 28.0896 27.1378 28.5933 26.5186 28.5933C25.8994 28.5933 25.3957 28.0895 25.3957 27.4704V23.2179C25.3957 22.5987 25.8994 22.0949 26.5186 22.0949C27.1378 22.0949 27.6415 22.5988 27.6415 23.2179V27.4704Z" fill="#1BC1BF"/>
<path d="M36.3667 19.8066H34.8133C33.3607 19.8066 32.1787 20.9885 32.1787 22.4412V29.7376C32.1787 30.3697 32.691 30.8818 33.3229 30.8818C33.9547 30.8818 34.467 30.3697 34.467 29.7376V26.6726H36.713V29.7376C36.713 30.3697 37.2253 30.8818 37.8572 30.8818C38.489 30.8818 39.0013 30.3697 39.0013 29.7376V22.4412C39.0013 20.9885 37.8195 19.8066 36.3667 19.8066ZM34.4671 24.3843V22.4412C34.4671 22.2504 34.6224 22.0949 34.8134 22.0949H36.3669C36.5577 22.0949 36.7132 22.2504 36.7132 22.4412V24.3843H34.4671Z" fill="#1BC1BF"/>
<path d="M46.6657 19.8067C46.0339 19.8067 45.5216 20.3188 45.5216 20.9508V24.701L43.4884 20.4565C43.2576 19.9749 42.7247 19.7168 42.203 19.8352C41.682 19.9534 41.3124 20.4167 41.3124 20.9508V29.7376C41.3124 30.3697 41.8246 30.8818 42.4565 30.8818C43.0884 30.8818 43.6007 30.3697 43.6007 29.7376V25.9875L45.6339 30.2319C45.8272 30.6354 46.2328 30.8819 46.6654 30.8819C46.7493 30.8819 46.8345 30.8725 46.9191 30.8533C47.4402 30.735 47.8099 30.2717 47.8099 29.7376V20.9508C47.8099 20.3188 47.2976 19.8067 46.6657 19.8067Z" fill="#1BC1BF"/>
<path d="M17.8169 38.2502H16.3565C15.7247 38.2502 15.2124 37.7381 15.2124 37.1061C15.2124 36.474 15.7247 35.9619 16.3565 35.9619H17.8169C18.4488 35.9619 18.9611 36.474 18.9611 37.1061C18.9611 37.7381 18.4488 38.2502 17.8169 38.2502Z" fill="#A5E557"/>
<path d="M52.1538 38.2502H23.1429C22.511 38.2502 21.9988 37.7381 21.9988 37.1061C21.9988 36.474 22.511 35.9619 23.1429 35.9619H52.1536C52.7855 35.9619 53.2978 36.474 53.2978 37.1061C53.2978 37.7381 52.7856 38.2502 52.1538 38.2502Z" fill="#A5E557"/>
<path d="M52.1537 44.0061H12.1219C11.4901 44.0061 10.9778 43.4939 10.9778 42.8619C10.9778 42.2299 11.4901 41.7178 12.1219 41.7178H52.1537C52.7856 41.7178 53.2979 42.2299 53.2979 42.8619C53.2979 43.4939 52.7856 44.0061 52.1537 44.0061Z" fill="#A5E557"/>
<path d="M52.1537 49.7619H12.1219C11.4901 49.7619 10.9778 49.2498 10.9778 48.6178C10.9778 47.9858 11.4901 47.4736 12.1219 47.4736H52.1537C52.7856 47.4736 53.2979 47.9858 53.2979 48.6178C53.2979 49.2498 52.7856 49.7619 52.1537 49.7619Z" fill="#A5E557"/>
<path d="M32.2387 67.1677C28.5099 67.1677 25.4761 64.1339 25.4761 60.4051C25.4761 56.6762 28.5097 53.6426 32.2387 53.6426C35.9677 53.6426 39.0014 56.6762 39.0014 60.4051C39.0014 64.1339 35.9677 67.1677 32.2387 67.1677ZM32.2387 55.9307C29.7716 55.9307 27.7644 57.9378 27.7644 60.4049C27.7644 62.8721 29.7715 64.8793 32.2387 64.8793C34.7059 64.8793 36.7131 62.8721 36.7131 60.4049C36.7131 57.938 34.7059 55.9307 32.2387 55.9307Z" fill="#1BC1BF"/>
<path d="M32.806 63.551C32.4861 63.551 32.1697 63.4174 31.945 63.1609L30.1908 61.1594C29.7743 60.6842 29.8219 59.9613 30.2971 59.5448C30.7723 59.1285 31.4953 59.1761 31.9116 59.6512L32.9939 60.8861L41.8063 54.7995C42.3263 54.4404 43.0387 54.5707 43.3979 55.0906C43.757 55.6105 43.6267 56.3232 43.1066 56.6823L33.4556 63.3483C33.258 63.4846 33.0312 63.551 32.806 63.551Z" fill="#A5E557"/>
</svg>
