<svg width="65" height="86" viewBox="0 0 65 86" fill="none" xmlns="http://www.w3.org/2000/svg">
<path d="M61.7583 4.17383H2.56669C1.14918 4.17383 0 5.32285 0 6.74052V73.2119C0 74.6294 1.14918 75.7786 2.56669 75.7786H61.7583C63.1758 75.7786 64.325 74.6294 64.325 73.2119V6.74037C64.3248 5.32285 63.1758 4.17383 61.7583 4.17383Z" fill="#002026"/>
<path d="M11.4382 73.2121V6.74052C11.4382 5.323 12.5874 4.17383 14.0049 4.17383H2.56669C1.14918 4.17383 0 5.32285 0 6.74052V73.2119C0 74.6294 1.14918 75.7786 2.56669 75.7786H14.0049C12.5874 75.7786 11.4382 74.6296 11.4382 73.2121Z" fill="#002026"/>
<path d="M19.1235 4.17383H45.2013V9.89453H19.1235V4.17383Z" fill="#002026"/>
<path d="M59.7484 9.43847V70.5133C59.7484 70.8935 59.4401 71.2018 59.0599 71.2018H5.26513C4.88497 71.2018 4.57666 70.8935 4.57666 70.5133V9.43847C4.57666 9.05831 4.88497 8.75 5.26513 8.75H59.0599C59.4402 8.75 59.7484 9.05831 59.7484 9.43847Z" fill="#F9F7F8"/>
<path d="M5.26513 8.75C4.88497 8.75 4.57666 9.05831 4.57666 9.43847V70.5133C4.57666 70.8935 4.88497 71.2018 5.26513 71.2018H11.4383V8.75H5.26513Z" fill="#EFEDEF"/>
<path d="M19.1235 8.75V13.6315C19.1235 16.0153 21.0629 17.9547 23.4467 17.9547H40.8782C43.262 17.9547 45.2014 16.0153 45.2014 13.6315V8.75H19.1235Z" fill="#EFEDEF"/>
<path d="M40.878 2.5969H36.0228C35.4024 1.07397 33.9082 0 32.1622 0C30.4163 0 28.922 1.07397 28.3016 2.5969H23.4464C22.7439 2.5969 22.1743 3.16637 22.1743 3.86903V13.6321C22.1743 14.3346 22.7438 14.9042 23.4464 14.9042H40.8778C41.5803 14.9042 42.15 14.3346 42.15 13.6321V3.86903C42.1501 3.16637 41.5805 2.5969 40.878 2.5969Z" fill="#F9F7F8"/>
<path d="M27.782 9.8957H26.9688C26.337 9.8957 25.8247 9.38359 25.8247 8.75156C25.8247 8.11954 26.337 7.60742 26.9688 7.60742H27.782C28.4138 7.60742 28.9261 8.11954 28.9261 8.75156C28.9261 9.38359 28.4138 9.8957 27.782 9.8957Z" fill="#EFEDEF"/>
<path d="M37.509 9.8957H36.6959C36.064 9.8957 35.5518 9.38359 35.5518 8.75156C35.5518 8.11954 36.064 7.60742 36.6959 7.60742H37.509C38.1409 7.60742 38.6531 8.11954 38.6531 8.75156C38.6531 9.38359 38.1409 9.8957 37.509 9.8957Z" fill="#EFEDEF"/>
<path d="M17.8169 38.2492H16.3565C15.7247 38.2492 15.2124 37.7371 15.2124 37.1051C15.2124 36.4731 15.7247 35.9609 16.3565 35.9609H17.8169C18.4488 35.9609 18.9611 36.4731 18.9611 37.1051C18.9611 37.7371 18.4488 38.2492 17.8169 38.2492Z" fill="#A282DD"/>
<path d="M52.154 38.2492H23.1432C22.5113 38.2492 21.999 37.7371 21.999 37.1051C21.999 36.4731 22.5113 35.9609 23.1432 35.9609H52.1539C52.7857 35.9609 53.298 36.4731 53.298 37.1051C53.298 37.7371 52.7859 38.2492 52.154 38.2492Z" fill="#A282DD"/>
<path d="M52.1535 44.0051H12.1217C11.4898 44.0051 10.9775 43.493 10.9775 42.8609C10.9775 42.2289 11.4898 41.7168 12.1217 41.7168H52.1535C52.7854 41.7168 53.2976 42.2289 53.2976 42.8609C53.2976 43.493 52.7854 44.0051 52.1535 44.0051Z" fill="#A282DD"/>
<path d="M52.1535 31.2883H12.1217C11.4898 31.2883 10.9775 30.7762 10.9775 30.1441C10.9775 29.5121 11.4898 29 12.1217 29H52.1535C52.7854 29 53.2976 29.5121 53.2976 30.1441C53.2976 30.7762 52.7854 31.2883 52.1535 31.2883Z" fill="#A282DD"/>
<path d="M52.1535 24.2883H12.1217C11.4898 24.2883 10.9775 23.7762 10.9775 23.1441C10.9775 22.5121 11.4898 22 12.1217 22H52.1535C52.7854 22 53.2976 22.5121 53.2976 23.1441C53.2976 23.7762 52.7854 24.2883 52.1535 24.2883Z" fill="#A282DD"/>
<path d="M52.154 49.7609H12.1222C11.4903 49.7609 10.978 49.2488 10.978 48.6168C10.978 47.9848 11.4903 47.4727 12.1222 47.4727H52.154C52.7859 47.4727 53.2981 47.9848 53.2981 48.6168C53.2981 49.2488 52.7859 49.7609 52.154 49.7609Z" fill="#A282DD"/>
<circle cx="32" cy="73" r="13" fill="#EF4A54"/>
<path d="M36 69L28 77" stroke="white" stroke-width="2" stroke-linecap="round" stroke-linejoin="round"/>
<path d="M28 69L36 77" stroke="white" stroke-width="2" stroke-linecap="round" stroke-linejoin="round"/>
</svg>
