<svg width="20" height="21" viewBox="0 0 20 21" fill="none" xmlns="http://www.w3.org/2000/svg">
<path d="M2.15694 0H17.3763C17.6629 0 17.8952 0.232509 17.8952 0.519153V17.4387H19.0143C19.301 17.4387 19.5335 17.6712 19.5335 17.9578V20.23C19.5335 20.5167 19.301 20.7492 19.0143 20.7492H0.518904C0.232259 20.7492 0 20.5167 0 20.23V17.9578C0 17.6712 0.232259 17.4387 0.518904 17.4387H1.63804V0.519153C1.63804 0.232509 1.87055 0 2.15694 0ZM4.78614 7.44153H7.05834V9.71398H4.78614V7.44153ZM12.4749 7.44153H14.7473V9.71398H12.4749V7.44153ZM8.63052 7.44153H10.9027V9.71398H8.63052V7.44153ZM4.78614 3.68945H7.05834V5.9619H4.78614V3.68945ZM12.4749 3.68945H14.7473V5.9619H12.4749V3.68945ZM8.63052 3.68945H10.9027V5.9619H8.63052V3.68945ZM10.5951 17.4387V13.7208H8.93812V17.4387H10.5951ZM7.90006 17.4387V13.2016C7.90006 12.9152 8.13257 12.6827 8.41921 12.6827H11.1143C11.4007 12.6827 11.6332 12.9152 11.6332 13.2016V17.4387H16.8571V1.03806H2.6761V17.4387H7.90006ZM1.03781 18.4767V19.7111H18.4954V18.4767C12.6762 18.4767 6.85701 18.4767 1.03781 18.4767Z" fill="#102E34"/>
<rect opacity="0.2" x="2.30725" y="0.791016" width="15.5864" height="16.4826" fill="#102E34"/>
</svg>
