<svg width="15" height="23" viewBox="0 0 15 23" fill="none" xmlns="http://www.w3.org/2000/svg">
<rect x="1.55371" y="1.40625" width="11.6525" height="19.4771" fill="#92CCBF"/>
<path d="M11.4365 1.68274C11.8009 1.68274 12.1505 1.82751 12.4082 2.08521C12.6659 2.34291 12.8106 2.69243 12.8106 3.05688V19.5466C12.8106 19.911 12.6659 20.2605 12.4082 20.5182C12.1505 20.776 11.8009 20.9207 11.4365 20.9207H3.19164C2.8272 20.9207 2.47768 20.776 2.21998 20.5182C1.96228 20.2605 1.8175 19.911 1.8175 19.5466V3.05688C1.8175 2.69243 1.96228 2.34291 2.21998 2.08521C2.47768 1.82751 2.8272 1.68274 3.19164 1.68274H11.4365ZM3.19164 0.308594C2.46275 0.308594 1.76372 0.598144 1.24831 1.11355C0.73291 1.62895 0.443359 2.32799 0.443359 3.05688V19.5466C0.443359 20.2755 0.73291 20.9745 1.24831 21.4899C1.76372 22.0053 2.46275 22.2949 3.19164 22.2949H11.4365C12.1654 22.2949 12.8644 22.0053 13.3798 21.4899C13.8952 20.9745 14.1848 20.2755 14.1848 19.5466V3.05688C14.1848 2.32799 13.8952 1.62895 13.3798 1.11355C12.8644 0.598144 12.1654 0.308594 11.4365 0.308594L3.19164 0.308594Z" fill="black"/>
<path d="M7.31408 19.5471C7.67853 19.5471 8.02805 19.4023 8.28575 19.1446C8.54345 18.8869 8.68823 18.5374 8.68823 18.173C8.68823 17.8085 8.54345 17.459 8.28575 17.2013C8.02805 16.9436 7.67853 16.7988 7.31408 16.7988C6.94964 16.7988 6.60012 16.9436 6.34242 17.2013C6.08472 17.459 5.93994 17.8085 5.93994 18.173C5.93994 18.5374 6.08472 18.8869 6.34242 19.1446C6.60012 19.4023 6.94964 19.5471 7.31408 19.5471Z" fill="black"/>
</svg>
